# File created by Blade
# Date/Time:  Wed Jan 21 16:09:38 2015
# Frame Rate: 120.000 fps
#------------------------------------------------------
:FULLY-SPECIFIED
:DEGREES
403
root 12.577271 33.176478 -21.424010 -182.409498 76.752467 -245.411458
Spine 57.238547 -10.318719 3.127932
Head -33.959531 -4.186559 5.376763
LeftShoulder -7.863810 -39.035751 22.431700
LeftArm -33.687026 -5.604742 -15.877982
LeftForeArm -29.520768 -0.000000 -3.069347
LeftHand -11.130001 -0.000000 7.869117
LeftHandThumb1 -26.253704 0.000000 33.147579
RightShoulder -10.270053 1.027032 -15.309640
RightArm -33.732247 47.643991 15.906197
RightForeArm 4.249769 0.000000 11.693635
RightHand -20.227652 -0.000000 -17.630275
RightHandThumb1 -24.326973 -0.000000 -32.862282
LeftUpLeg -38.717949 -9.207691 -16.967405
LeftLeg -15.180129 -0.000000 0.000000
LeftFoot -7.819552 27.542269 15.794137
LeftToeBase -138.349580 -0.000000 0.000000
RightUpLeg -85.247113 -6.717037 -8.544746
RightLeg -2.961917 -0.000000 0.000000
RightFoot 9.612357 -27.469924 0.023633
RightToeBase 28.223419 -0.000000 -0.000000
404
root 12.575996 33.178104 -21.430479 -182.562913 76.717914 -245.681574
Spine 57.868567 -10.436213 3.134722
Head -34.040077 -4.260866 5.385578
LeftShoulder -7.775236 -38.991481 22.384665
LeftArm -33.742482 -5.327470 -16.105403
LeftForeArm -30.040104 0.000000 -3.192903
LeftHand -11.051473 -0.000000 7.711286
LeftHandThumb1 -26.253704 0.000000 33.147579
RightShoulder -10.244282 1.023029 -15.285011
RightArm -33.738849 47.579283 15.902793
RightForeArm 4.514006 -0.000000 11.633321
RightHand -20.211681 -0.000000 -17.427912
RightHandThumb1 -24.326973 -0.000000 -32.862282
LeftUpLeg -38.922078 -9.331743 -16.981928
LeftLeg -14.971493 -0.000000 0.000000
LeftFoot -7.892679 27.671663 15.798615
LeftToeBase -138.299010 -0.000000 0.000000
RightUpLeg -85.368871 -6.795189 -8.411633
RightLeg -2.975937 -0.000000 0.000000
RightFoot 9.601567 -27.244666 -0.006278
RightToeBase 28.298540 -0.000000 -0.000000
405
root 12.570825 33.175629 -21.436293 -182.779518 76.720010 -246.014154
Spine 58.432982 -10.430374 3.202610
Head -34.035879 -4.297806 5.437267
LeftShoulder -7.662063 -38.828426 22.448525
LeftArm -33.749299 -5.514328 -16.284479
LeftForeArm -29.983240 0.000000 -3.346513
LeftHand -11.033471 0.000000 7.497076
LeftHandThumb1 -26.253704 0.000000 33.147579
RightShoulder -10.264158 0.534224 -15.077863
RightArm -33.572346 47.834396 15.941255
RightForeArm 4.899522 -0.000000 11.529594
RightHand -20.178721 0.000000 -17.386874
RightHandThumb1 -24.326973 -0.000000 -32.862282
LeftUpLeg -39.144854 -9.437575 -16.985537
LeftLeg -14.755458 -0.000000 0.000000
LeftFoot -7.968066 27.835903 15.902749
LeftToeBase -138.216603 -0.000000 0.000000
RightUpLeg -85.501325 -6.820727 -8.363091
RightLeg -2.984354 -0.000000 0.000000
RightFoot 9.609067 -27.160476 -0.017141
RightToeBase 28.357590 -0.000000 -0.000000
406
root 12.564496 33.174882 -21.442449 -183.040983 76.750882 -246.434667
Spine 58.925150 -10.447235 3.236115
Head -33.987128 -4.391506 5.468623
LeftShoulder -7.545193 -38.686199 22.337397
LeftArm -33.695366 -5.456451 -16.418971
LeftForeArm -30.202203 -0.000000 -3.500868
LeftHand -10.989090 -0.000000 7.250467
LeftHandThumb1 -26.253704 0.000000 33.147579
RightShoulder -10.195185 0.470883 -15.003984
RightArm -33.693677 47.636170 15.860983
RightForeArm 5.327593 -0.000000 11.553519
RightHand -20.159545 -0.000000 -17.157970
RightHandThumb1 -24.326973 -0.000000 -32.862282
LeftUpLeg -39.432009 -9.537797 -16.984500
LeftLeg -14.501188 -0.000000 0.000000
LeftFoot -8.048562 27.990355 16.039890
LeftToeBase -138.061222 -0.000000 0.000000
RightUpLeg -85.690189 -6.831163 -8.370987
RightLeg -2.976180 -0.000000 0.000000
RightFoot 9.621472 -27.148534 0.325785
RightToeBase 27.905460 -0.000000 -0.000000
407
root 12.560341 33.172685 -21.450860 -183.431095 76.758498 -246.928303
Spine 59.486451 -10.498798 3.202568
Head -33.961896 -4.428697 5.491348
LeftShoulder -7.498443 -38.554061 22.321031
LeftArm -33.676047 -5.457512 -16.551186
LeftForeArm -30.472868 0.000000 -3.628690
LeftHand -10.949721 -0.000000 7.264735
LeftHandThumb1 -26.253704 0.000000 33.147579
RightShoulder -10.221825 0.409433 -14.983912
RightArm -33.661178 47.647182 15.879656
RightForeArm 5.522820 -0.000000 11.518955
RightHand -20.030831 -0.000000 -17.120477
RightHandThumb1 -24.326973 -0.000000 -32.862282
LeftUpLeg -39.660783 -9.584681 -17.067168
LeftLeg -14.214225 -0.000000 0.000000
LeftFoot -8.165297 28.097389 16.151652
LeftToeBase -137.906553 -0.000000 0.000000
RightUpLeg -85.820433 -6.856738 -8.334279
RightLeg -2.973760 -0.000000 0.000000
RightFoot 9.636327 -27.007093 0.192346
RightToeBase 28.198634 -0.000000 -0.000000
408
root 12.553492 33.171227 -21.459862 -183.872404 76.789242 -247.505514
Spine 59.963965 -10.502909 3.169973
Head -33.862416 -4.473976 5.482380
LeftShoulder -7.329154 -38.492065 22.181655
LeftArm -33.754649 -5.251522 -16.673702
LeftForeArm -30.880368 -0.000000 -3.596881
LeftHand -11.025156 -0.000000 7.221342
LeftHandThumb1 -26.253704 0.000000 33.147579
RightShoulder -10.250971 0.344351 -14.942054
RightArm -33.603232 47.531669 15.943472
RightForeArm 5.744128 -0.000000 11.535662
RightHand -20.087877 -0.000000 -17.036503
RightHandThumb1 -24.326973 -0.000000 -32.862282
LeftUpLeg -39.927636 -9.714141 -17.063435
LeftLeg -13.961132 -0.000000 0.000000
LeftFoot -8.245222 28.350478 16.274044
LeftToeBase -137.806976 -0.000000 0.000000
RightUpLeg -86.000164 -6.863303 -8.356337
RightLeg -2.928392 -0.000000 0.000000
RightFoot 9.593580 -26.939857 0.336828
RightToeBase 28.026670 -0.000000 -0.000000
409
root 12.544644 33.168492 -21.470450 -184.437775 76.807287 -248.206769
Spine 60.453792 -10.525618 3.055398
Head -33.812229 -4.508063 5.551432
LeftShoulder -7.301304 -38.269556 22.187480
LeftArm -33.752291 -5.363479 -16.756586
LeftForeArm -30.988321 0.000000 -3.680599
LeftHand -11.076835 -0.000000 7.019420
LeftHandThumb1 -26.253704 0.000000 33.147579
RightShoulder -10.172207 0.508327 -14.883428
RightArm -33.808945 47.250116 15.756701
RightForeArm 5.958316 0.000000 11.571618
RightHand -20.061667 0.000000 -16.969434
RightHandThumb1 -24.326973 -0.000000 -32.862282
LeftUpLeg -40.197821 -9.860037 -17.075249
LeftLeg -13.692243 -0.000000 0.000000
LeftFoot -8.306198 28.537858 16.400358
LeftToeBase -137.703712 -0.000000 0.000000
RightUpLeg -86.190310 -6.878976 -8.419665
RightLeg -2.876542 -0.000000 0.000000
RightFoot 9.574086 -26.888902 0.417027
RightToeBase 28.059669 -0.000000 -0.000000
410
root 12.537184 33.166686 -21.483459 -185.070839 76.830446 -248.945756
Spine 60.946571 -10.524561 2.975060
Head -33.743584 -4.602282 5.613791
LeftShoulder -7.209656 -38.075708 22.133513
LeftArm -33.727545 -5.476330 -16.830401
LeftForeArm -31.234799 -0.000000 -3.781151
LeftHand -11.075002 -0.000000 6.900068
LeftHandThumb1 -26.253704 0.000000 33.147579
RightShoulder -10.190874 0.351644 -14.835213
RightArm -33.865046 47.312028 15.746260
RightForeArm 6.128592 -0.000000 11.680145
RightHand -20.069837 -0.000000 -16.799888
RightHandThumb1 -24.326973 -0.000000 -32.862282
LeftUpLeg -40.407006 -9.936606 -17.155463
LeftLeg -13.457474 -0.000000 0.000000
LeftFoot -8.428796 28.663913 16.439550
LeftToeBase -137.577401 -0.000000 0.000000
RightUpLeg -86.349202 -6.893322 -8.451319
RightLeg -2.824094 -0.000000 0.000000
RightFoot 9.577050 -26.749833 0.425003
RightToeBase 28.028149 -0.000000 -0.000000
411
root 12.529793 33.163896 -21.496763 -185.618836 76.849917 -249.608785
Spine 61.415536 -10.531050 2.918897
Head -33.692030 -4.613381 5.648560
LeftShoulder -7.128792 -37.834774 22.069233
LeftArm -33.696226 -5.635343 -16.903370
LeftForeArm -31.453470 0.000000 -3.874170
LeftHand -11.054864 -0.000000 6.665107
LeftHandThumb1 -26.253704 0.000000 33.147579
RightShoulder -10.192118 0.205557 -14.759779
RightArm -33.882293 47.284400 15.736960
RightForeArm 6.356919 0.000000 11.690672
RightHand -19.998918 0.000000 -16.742239
RightHandThumb1 -24.326973 -0.000000 -32.862282
LeftUpLeg -40.627556 -10.057331 -17.177602
LeftLeg -13.233389 -0.000000 0.000000
LeftFoot -8.498391 28.788210 16.523780
LeftToeBase -137.427791 -0.000000 0.000000
RightUpLeg -86.522769 -6.912573 -8.434243
RightLeg -2.777843 -0.000000 0.000000
RightFoot 9.563127 -26.627213 0.526461
RightToeBase 28.192134 -0.000000 -0.000000
412
root 12.521982 33.160737 -21.510024 -186.299969 76.862050 -250.406460
Spine 61.866132 -10.570212 2.740527
Head -33.597117 -4.589244 5.728185
LeftShoulder -7.204732 -37.594899 22.151113
LeftArm -33.673722 -5.828774 -16.977722
LeftForeArm -31.549607 -0.000000 -3.944566
LeftHand -11.115877 -0.000000 6.511121
LeftHandThumb1 -26.253704 0.000000 33.147579
RightShoulder -10.120226 0.305256 -14.753483
RightArm -34.013903 47.087507 15.684959
RightForeArm 6.532858 -0.000000 11.732733
RightHand -19.966716 0.000000 -16.667929
RightHandThumb1 -24.326973 -0.000000 -32.862282
LeftUpLeg -40.837032 -10.211643 -17.191834
LeftLeg -13.031910 -0.000000 0.000000
LeftFoot -8.543126 28.932476 16.605640
LeftToeBase -137.311410 -0.000000 0.000000
RightUpLeg -86.697131 -6.928806 -8.506960
RightLeg -2.704828 -0.000000 0.000000
RightFoot 9.510690 -26.511348 0.544290
RightToeBase 28.248147 -0.000000 -0.000000
413
root 12.514478 33.156340 -21.524226 -186.936526 76.881972 -251.144030
Spine 62.323037 -10.624872 2.586668
Head -33.531538 -4.551846 5.730974
LeftShoulder -7.301529 -37.327828 22.167619
LeftArm -33.585751 -5.952374 -17.102861
LeftForeArm -31.730020 -0.000000 -4.010064
LeftHand -11.138077 -0.000000 6.383370
LeftHandThumb1 -26.253704 0.000000 33.147579
RightShoulder -10.065133 0.308311 -14.753960
RightArm -34.073616 46.963998 15.686007
RightForeArm 6.585296 0.000000 11.752182
RightHand -19.967444 -0.000000 -16.765630
RightHandThumb1 -24.326973 -0.000000 -32.862282
LeftUpLeg -40.993359 -10.353766 -17.197557
LeftLeg -12.913618 -0.000000 0.000000
LeftFoot -8.556242 29.076490 16.640973
LeftToeBase -137.209911 -0.000000 0.000000
RightUpLeg -86.870230 -6.939670 -8.511937
RightLeg -2.633832 -0.000000 0.000000
RightFoot 9.491035 -26.387493 0.594181
RightToeBase 28.270803 -0.000000 -0.000000
414
root 12.505878 33.151436 -21.538668 -187.474480 76.899212 -251.781275
Spine 62.755297 -10.613692 2.555785
Head -33.503263 -4.619281 5.791499
LeftShoulder -7.300940 -37.143452 22.209071
LeftArm -33.550436 -6.081069 -17.277010
LeftForeArm -31.860227 -0.000000 -4.086493
LeftHand -11.115218 -0.000000 6.110263
LeftHandThumb1 -26.253704 0.000000 33.147579
RightShoulder -10.162843 0.036107 -14.676275
RightArm -34.027295 47.123062 15.667146
RightForeArm 6.830390 0.000000 11.671499
RightHand -19.848407 -0.000000 -16.492076
RightHandThumb1 -24.326973 -0.000000 -32.862282
LeftUpLeg -41.122283 -10.478482 -17.204809
LeftLeg -12.849718 -0.000000 0.000000
LeftFoot -8.542568 29.188611 16.696206
LeftToeBase -137.118981 -0.000000 0.000000
RightUpLeg -87.036191 -6.948568 -8.534059
RightLeg -2.562763 -0.000000 0.000000
RightFoot 9.466542 -26.294529 0.580749
RightToeBase 28.396627 -0.000000 -0.000000
